<svg width="803" height="349" viewBox="0 0 803 349" fill="none" xmlns="http://www.w3.org/2000/svg">
<rect width="803" height="349" fill="#DC332D"/>
<g filter="url(#filter0_d)">
<path d="M66.4673 66.3818H57.6641L55.478 54.0928C53.7056 52.596 51.3423 51.3553 48.3882 50.3706C45.4341 49.3859 42.0073 48.8936 38.1079 48.8936C31.924 48.8936 27.1777 50.2131 23.8691 52.8521C20.5605 55.4517 18.9062 58.8587 18.9062 63.0732C18.9062 66.8151 20.5802 69.9465 23.9282 72.4673C27.3156 74.9487 32.7708 77.1348 40.2939 79.0254C49.3532 81.2705 56.2264 84.5791 60.9136 88.9512C65.6401 93.3232 68.0034 98.7391 68.0034 105.199C68.0034 112.131 65.1675 117.704 59.4956 121.919C53.8631 126.133 46.4779 128.241 37.3398 128.241C30.7227 128.241 24.8341 127.158 19.6743 124.991C14.5539 122.825 10.3787 119.989 7.14893 116.483V100.472H15.8931L18.1382 112.82C20.3833 114.672 23.0617 116.188 26.1733 117.37C29.285 118.551 33.0072 119.142 37.3398 119.142C43.2087 119.142 47.8368 117.901 51.2241 115.42C54.6509 112.938 56.3643 109.571 56.3643 105.317C56.3643 101.378 54.8872 98.0892 51.9331 95.4502C48.979 92.7718 43.7601 90.5267 36.2764 88.7148C27.1777 86.5485 20.0682 83.3581 14.9478 79.1436C9.82731 74.929 7.26709 69.6313 7.26709 63.2505C7.26709 56.5151 10.1227 50.922 15.834 46.4712C21.5452 41.981 28.9699 39.7358 38.1079 39.7358C44.1343 39.7358 49.6092 40.7796 54.5327 42.8672C59.4956 44.9154 63.4738 47.4165 66.4673 50.3706V66.3818ZM107.707 119.142C111.567 119.142 114.954 117.96 117.869 115.597C120.823 113.194 122.3 110.26 122.3 106.794H132.757L132.875 107.148C133.072 112.663 130.611 117.567 125.49 121.86C120.409 126.114 114.481 128.241 107.707 128.241C98.411 128.241 91.3014 125.208 86.3779 119.142C81.4938 113.076 79.0518 105.455 79.0518 96.2773V93.7959C79.0518 84.6973 81.5135 77.1151 86.437 71.0493C91.3605 64.9442 98.4504 61.8916 107.707 61.8916C112.827 61.8916 117.416 62.7384 121.473 64.4321C125.569 66.1258 128.956 68.4497 131.635 71.4038L132.167 85.5835H122.891L120.35 75.5396C118.972 74.2004 117.199 73.1172 115.033 72.29C112.866 71.4629 110.424 71.0493 107.707 71.0493C101.601 71.0493 97.2293 73.255 94.5903 77.6665C91.9907 82.0386 90.6909 87.415 90.6909 93.7959V96.2773C90.6909 102.816 91.9907 108.271 94.5903 112.643C97.1899 116.976 101.562 119.142 107.707 119.142ZM185.931 127C185.577 125.267 185.301 123.711 185.104 122.333C184.907 120.954 184.769 119.575 184.69 118.197C182.445 121.072 179.629 123.475 176.242 125.405C172.894 127.295 169.309 128.241 165.489 128.241C158.832 128.241 153.771 126.626 150.305 123.396C146.839 120.127 145.105 115.538 145.105 109.63C145.105 103.564 147.548 98.8966 152.432 95.6274C157.355 92.3188 164.09 90.6646 172.638 90.6646H184.631V83.2202C184.631 79.4784 183.45 76.5243 181.086 74.3579C178.723 72.1522 175.434 71.0493 171.22 71.0493C168.305 71.0493 165.725 71.4235 163.48 72.1719C161.274 72.9202 159.482 73.9443 158.104 75.2441L156.863 81.9795H147.882V69.5723C150.797 67.2484 154.322 65.3971 158.458 64.0186C162.594 62.6006 167.084 61.8916 171.929 61.8916C179.176 61.8916 185.045 63.7428 189.535 67.4453C194.025 71.1478 196.271 76.4455 196.271 83.3384V114.12C196.271 114.947 196.271 115.755 196.271 116.542C196.31 117.33 196.369 118.118 196.448 118.906L201.174 119.556V127H185.931ZM167.202 118.492C171.062 118.492 174.587 117.567 177.778 115.715C180.968 113.864 183.253 111.639 184.631 109.039V98.5225H172.224C167.458 98.5225 163.677 99.6253 160.88 101.831C158.123 104.037 156.745 106.715 156.745 109.866C156.745 112.663 157.611 114.809 159.344 116.306C161.077 117.764 163.697 118.492 167.202 118.492ZM209.269 42.3354V34.832H230.538V117.901L240.168 119.556V127H209.269V119.556L218.899 117.901V43.9897L209.269 42.3354ZM290.743 127C290.388 125.267 290.112 123.711 289.916 122.333C289.719 120.954 289.581 119.575 289.502 118.197C287.257 121.072 284.441 123.475 281.053 125.405C277.705 127.295 274.121 128.241 270.3 128.241C263.644 128.241 258.582 126.626 255.116 123.396C251.65 120.127 249.917 115.538 249.917 109.63C249.917 103.564 252.359 98.8966 257.243 95.6274C262.167 92.3188 268.902 90.6646 277.449 90.6646H289.443V83.2202C289.443 79.4784 288.261 76.5243 285.898 74.3579C283.535 72.1522 280.246 71.0493 276.031 71.0493C273.117 71.0493 270.537 71.4235 268.292 72.1719C266.086 72.9202 264.294 73.9443 262.915 75.2441L261.674 81.9795H252.694V69.5723C255.609 67.2484 259.134 65.3971 263.27 64.0186C267.405 62.6006 271.896 61.8916 276.74 61.8916C283.988 61.8916 289.856 63.7428 294.347 67.4453C298.837 71.1478 301.082 76.4455 301.082 83.3384V114.12C301.082 114.947 301.082 115.755 301.082 116.542C301.121 117.33 301.181 118.118 301.259 118.906L305.986 119.556V127H290.743ZM272.014 118.492C275.874 118.492 279.399 117.567 282.589 115.715C285.78 113.864 288.064 111.639 289.443 109.039V98.5225H277.036C272.27 98.5225 268.488 99.6253 265.692 101.831C262.935 104.037 261.556 106.715 261.556 109.866C261.556 112.663 262.423 114.809 264.156 116.306C265.889 117.764 268.508 118.492 272.014 118.492ZM354.138 40.9766C363.315 40.9766 370.444 43.3398 375.525 48.0664C380.646 52.793 383.206 59.0163 383.206 66.7363C383.206 74.5352 380.646 80.7782 375.525 85.4653C370.444 90.1525 363.315 92.4961 354.138 92.4961H335.881V117.901L345.512 119.556V127H314.612V119.556L324.242 117.901V50.1343L314.612 48.48V40.9766H324.242H354.138ZM335.881 83.3975H354.138C359.967 83.3975 364.319 81.8416 367.195 78.73C370.11 75.5789 371.567 71.6204 371.567 66.8545C371.567 62.0885 370.11 58.1104 367.195 54.9199C364.319 51.7295 359.967 50.1343 354.138 50.1343H335.881V83.3975ZM454.282 70.5767L448.551 71.4629L424.209 136.808C422.594 141.101 420.27 144.843 417.237 148.033C414.204 151.224 410.128 152.819 405.007 152.819C404.101 152.819 402.92 152.701 401.462 152.464C400.005 152.267 398.882 152.07 398.095 151.874L399.276 142.716C399.04 142.676 399.729 142.716 401.344 142.834C402.999 142.952 404.042 143.011 404.476 143.011C406.957 143.011 408.966 141.928 410.502 139.762C412.038 137.635 413.377 135.173 414.52 132.376L417.296 125.759L396.204 71.522L390.355 70.5767V63.0732H416.174V70.5767L408.966 71.7583L420.014 103.308L422.141 111.461H422.496L435.789 71.7583L428.522 70.5767V63.0732H454.282V70.5767Z" transform="translate(282.204 89.8162)" fill="white"/>
</g>
<g opacity="0.6">
<path d="M0 64.6676C0 64.6676 161.37 80.8345 161.37 107.779V43.1118C161.37 43.1118 161.37 16.1669 0 1.95784e-06V25.1485V64.6676Z" transform="translate(67.9856 77.4985)" fill="white"/>
<path d="M0 64.6676C0 64.6676 161.37 80.8346 161.37 107.779V43.1118C161.37 43.1118 161.37 16.1669 0 7.83135e-06V64.6676Z" transform="translate(67.9856 163.722)" fill="white"/>
</g>
<path d="M161.37 0V64.6676C161.37 64.6676 161.37 91.6125 0.000301179 107.779V42.8551C-0.256248 42.8551 161.37 26.9449 161.37 0Z" transform="translate(68.2419 34.6434)" fill="#66AAEE"/>
<path d="M0 43.1118C0 43.1118 161.37 26.9449 161.37 0V64.6676C161.37 64.6676 161.37 91.6125 0 107.779V43.1118Z" transform="translate(67.9856 120.61)" fill="#FFDD55"/>
<path d="M0 107.779V43.1118C0 43.1118 161.37 26.9449 161.37 0V64.6676C161.626 64.9243 161.626 91.6125 0 107.779Z" transform="translate(67.9856 206.577)" fill="#66AAEE"/>
<defs>
<filter id="filter0_d" x="285.353" y="123.648" width="455.133" height="125.987" filterUnits="userSpaceOnUse" color-interpolation-filters="sRGB">
<feFlood flood-opacity="0" result="BackgroundImageFix"/>
<feColorMatrix in="SourceAlpha" type="matrix" values="0 0 0 0 0 0 0 0 0 0 0 0 0 0 0 0 0 0 255 0"/>
<feOffset dy="3"/>
<feGaussianBlur stdDeviation="2"/>
<feColorMatrix type="matrix" values="0 0 0 0 0 0 0 0 0 0 0 0 0 0 0 0 0 0 0.25 0"/>
<feBlend mode="normal" in2="BackgroundImageFix" result="effect1_dropShadow"/>
<feBlend mode="normal" in="SourceGraphic" in2="effect1_dropShadow" result="shape"/>
</filter>
</defs>
</svg>
