<svg width="210" height="364" viewBox="0 0 210 364" fill="none" xmlns="http://www.w3.org/2000/svg">
<g opacity="0.6">
<path d="M0 140.539C0 140.539 209.667 161.519 209.667 196.487V112.564C209.667 112.564 209.667 77.5963 0 56.6156V89.2523V140.539Z" fill="white"/>
<path d="M0 252.436C0 252.436 209.667 273.417 209.667 308.384V224.461C209.667 224.461 209.667 189.494 0 168.513V252.436Z" fill="white"/>
</g>
<path d="M210 1V84.9229C210 84.9229 210 119.891 0.333338 140.872V56.6156C4.79817e-06 56.6156 210 35.9679 210 1Z" fill="#66AAEE"/>
<path d="M0 168.513C0 168.513 209.667 147.532 209.667 112.564V196.487C209.667 196.487 209.667 231.455 0 252.436V168.513Z" fill="#FFDD55"/>
<path d="M0 364V280.077C0 280.077 209.667 259.096 209.667 224.128V308.051C210 308.384 210 343.019 0 364Z" fill="#66AAEE"/>
</svg>
