<svg width="698" height="289" viewBox="0 0 698 289" fill="none" xmlns="http://www.w3.org/2000/svg">
<g filter="url(#filter0_d)">
<path d="M284.672 122.198H275.869L273.682 109.909C271.91 108.412 269.547 107.171 266.593 106.187C263.639 105.202 260.212 104.71 256.312 104.71C250.128 104.71 245.382 106.029 242.074 108.668C238.765 111.268 237.111 114.675 237.111 118.889C237.111 122.631 238.785 125.763 242.133 128.283C245.52 130.765 250.975 132.951 258.498 134.842C267.558 137.087 274.431 140.395 279.118 144.767C283.845 149.139 286.208 154.555 286.208 161.015C286.208 167.947 283.372 173.521 277.7 177.735C272.068 181.95 264.682 184.057 255.544 184.057C248.927 184.057 243.039 182.974 237.879 180.807C232.758 178.641 228.583 175.805 225.353 172.3V156.288H234.098L236.343 168.636C238.588 170.488 241.266 172.004 244.378 173.186C247.489 174.367 251.212 174.958 255.544 174.958C261.413 174.958 266.041 173.718 269.429 171.236C272.855 168.755 274.569 165.387 274.569 161.133C274.569 157.194 273.092 153.905 270.138 151.266C267.183 148.588 261.965 146.343 254.481 144.531C245.382 142.365 238.273 139.174 233.152 134.96C228.032 130.745 225.472 125.448 225.472 119.067C225.472 112.331 228.327 106.738 234.038 102.287C239.75 97.7971 247.174 95.552 256.312 95.552C262.339 95.552 267.814 96.5958 272.737 98.6833C277.7 100.732 281.678 103.233 284.672 106.187V122.198ZM325.911 174.958C329.771 174.958 333.158 173.777 336.073 171.413C339.027 169.011 340.504 166.076 340.504 162.61H350.962L351.08 162.965C351.277 168.479 348.815 173.383 343.695 177.676C338.614 181.93 332.686 184.057 325.911 184.057C316.615 184.057 309.506 181.024 304.582 174.958C299.698 168.892 297.256 161.271 297.256 152.094V149.612C297.256 140.513 299.718 132.931 304.641 126.865C309.565 120.76 316.655 117.708 325.911 117.708C331.031 117.708 335.62 118.555 339.677 120.248C343.773 121.942 347.161 124.266 349.839 127.22L350.371 141.4H341.095L338.555 131.356C337.176 130.017 335.404 128.933 333.237 128.106C331.071 127.279 328.629 126.865 325.911 126.865C319.806 126.865 315.434 129.071 312.795 133.483C310.195 137.855 308.895 143.231 308.895 149.612V152.094C308.895 158.632 310.195 164.087 312.795 168.459C315.394 172.792 319.766 174.958 325.911 174.958ZM404.136 182.816C403.781 181.083 403.505 179.527 403.308 178.149C403.112 176.77 402.974 175.392 402.895 174.013C400.65 176.888 397.834 179.291 394.446 181.221C391.098 183.112 387.514 184.057 383.693 184.057C377.037 184.057 371.975 182.442 368.509 179.212C365.043 175.943 363.31 171.354 363.31 165.446C363.31 159.38 365.752 154.713 370.636 151.444C375.56 148.135 382.295 146.481 390.842 146.481H402.836V139.036C402.836 135.295 401.654 132.34 399.291 130.174C396.928 127.968 393.639 126.865 389.424 126.865C386.509 126.865 383.93 127.24 381.684 127.988C379.479 128.736 377.687 129.76 376.308 131.06L375.067 137.796H366.087V125.388C369.002 123.065 372.527 121.213 376.662 119.835C380.798 118.417 385.288 117.708 390.133 117.708C397.381 117.708 403.249 119.559 407.74 123.261C412.23 126.964 414.475 132.262 414.475 139.155V169.936C414.475 170.763 414.475 171.571 414.475 172.359C414.514 173.146 414.573 173.934 414.652 174.722L419.379 175.372V182.816H404.136ZM385.407 174.308C389.267 174.308 392.792 173.383 395.982 171.531C399.173 169.68 401.457 167.455 402.836 164.855V154.339H390.429C385.663 154.339 381.881 155.441 379.085 157.647C376.328 159.853 374.949 162.531 374.949 165.682C374.949 168.479 375.816 170.626 377.549 172.122C379.282 173.58 381.901 174.308 385.407 174.308ZM427.473 98.1516V90.6482H448.743V173.718L458.373 175.372V182.816H427.473V175.372L437.103 173.718V99.8059L427.473 98.1516ZM508.947 182.816C508.593 181.083 508.317 179.527 508.12 178.149C507.923 176.77 507.785 175.392 507.706 174.013C505.461 176.888 502.645 179.291 499.258 181.221C495.91 183.112 492.325 184.057 488.505 184.057C481.848 184.057 476.787 182.442 473.321 179.212C469.855 175.943 468.121 171.354 468.121 165.446C468.121 159.38 470.564 154.713 475.448 151.444C480.371 148.135 487.106 146.481 495.654 146.481H507.647V139.036C507.647 135.295 506.466 132.34 504.102 130.174C501.739 127.968 498.45 126.865 494.236 126.865C491.321 126.865 488.741 127.24 486.496 127.988C484.29 128.736 482.498 129.76 481.12 131.06L479.879 137.796H470.898V125.388C473.813 123.065 477.338 121.213 481.474 119.835C485.61 118.417 490.1 117.708 494.945 117.708C502.192 117.708 508.061 119.559 512.551 123.261C517.041 126.964 519.286 132.262 519.286 139.155V169.936C519.286 170.763 519.286 171.571 519.286 172.359C519.326 173.146 519.385 173.934 519.464 174.722L524.19 175.372V182.816H508.947ZM490.218 174.308C494.078 174.308 497.603 173.383 500.794 171.531C503.984 169.68 506.269 167.455 507.647 164.855V154.339H495.24C490.474 154.339 486.693 155.441 483.896 157.647C481.139 159.853 479.761 162.531 479.761 165.682C479.761 168.479 480.627 170.626 482.36 172.122C484.093 173.58 486.713 174.308 490.218 174.308ZM572.342 96.7927C581.52 96.7927 588.649 99.156 593.73 103.883C598.85 108.609 601.411 114.832 601.411 122.552C601.411 130.351 598.85 136.594 593.73 141.281C588.649 145.969 581.52 148.312 572.342 148.312H554.086V173.718L563.716 175.372V182.816H532.816V175.372L542.447 173.718V105.95L532.816 104.296V96.7927H542.447H572.342ZM554.086 139.214H572.342C578.172 139.214 582.524 137.658 585.399 134.546C588.314 131.395 589.771 127.437 589.771 122.671C589.771 117.905 588.314 113.927 585.399 110.736C582.524 107.546 578.172 105.95 572.342 105.95H554.086V139.214ZM672.486 126.393L666.755 127.279L642.413 192.624C640.799 196.917 638.475 200.659 635.442 203.849C632.409 207.04 628.332 208.635 623.212 208.635C622.306 208.635 621.124 208.517 619.667 208.281C618.21 208.084 617.087 207.887 616.299 207.69L617.481 198.532C617.245 198.493 617.934 198.532 619.549 198.65C621.203 198.768 622.247 198.827 622.68 198.827C625.161 198.827 627.17 197.744 628.706 195.578C630.243 193.451 631.582 190.989 632.724 188.193L635.501 181.575L614.409 127.338L608.559 126.393V118.889H634.378V126.393L627.17 127.574L638.219 159.124L640.346 167.278H640.7L653.994 127.574L646.726 126.393V118.889H672.486V126.393Z" fill="white"/>
<g opacity="0.6">
<path d="M4.9856 108.166C4.9856 108.166 166.355 124.333 166.355 151.278V86.6103C166.355 86.6103 166.355 59.6654 4.9856 43.4985V68.6471V108.166Z" fill="white"/>
<path d="M4.9856 194.39C4.9856 194.39 166.355 210.557 166.355 237.501V172.834C166.355 172.834 166.355 145.889 4.9856 129.722V194.39Z" fill="white"/>
</g>
<path d="M166.612 0.643372V65.311C166.612 65.311 166.612 92.2559 5.24212 108.423V43.4985C4.98557 43.4985 166.612 27.5882 166.612 0.643372Z" fill="#66AAEE"/>
<path d="M4.9856 129.722C4.9856 129.722 166.355 113.555 166.355 86.6103V151.278C166.355 151.278 166.355 178.223 4.9856 194.39V129.722Z" fill="#FFDD55"/>
<path d="M4.9856 280.357V215.689C4.9856 215.689 166.355 199.522 166.355 172.577V237.245C166.612 237.501 166.612 264.19 4.9856 280.357Z" fill="#66AAEE"/>
</g>
<defs>
<filter id="filter0_d" x="0.985596" y="0.643372" width="675.501" height="287.713" filterUnits="userSpaceOnUse" color-interpolation-filters="sRGB">
<feFlood flood-opacity="0" result="BackgroundImageFix"/>
<feColorMatrix in="SourceAlpha" type="matrix" values="0 0 0 0 0 0 0 0 0 0 0 0 0 0 0 0 0 0 127 0"/>
<feOffset dy="4"/>
<feGaussianBlur stdDeviation="2"/>
<feColorMatrix type="matrix" values="0 0 0 0 0 0 0 0 0 0 0 0 0 0 0 0 0 0 0.25 0"/>
<feBlend mode="normal" in2="BackgroundImageFix" result="effect1_dropShadow"/>
<feBlend mode="normal" in="SourceGraphic" in2="effect1_dropShadow" result="shape"/>
</filter>
</defs>
</svg>
